<svg width="468" height="165" viewBox="0 0 468 165" fill="none" xmlns="http://www.w3.org/2000/svg">
<path d="M168.48 18.568L176.72 26.808V38.208L168.48 46.448H146.72V48.008L149.16 50.448H176.16V61.768H143.64L135.4 53.528V26.808L143.64 18.568H168.48ZM164.36 26.768L168.48 30.848V35.088L165 38.568H143.4V31.048L147.68 26.768H164.36ZM166.88 21.648H145.16L138.24 28.568V51.968L145 58.728H172.88V53.608H147.52L143.4 49.488V43.488H167.08L173.6 37.008V28.368L166.88 21.648ZM162.96 29.888H149.16L146.72 32.328V35.528H163.76L165.44 33.848V32.328L162.96 29.888Z" fill="white"/>
<path d="M185.556 61.768V47.168L192.836 39.848L185.556 32.648V18.568H196.876V27.888L203.196 34.248H209.196L215.516 27.888V18.568H226.836V32.648L219.596 39.848L226.836 47.168V61.768H215.516V51.888L209.196 45.568H203.196L196.876 51.888V61.768H185.556ZM188.676 58.688H193.836V50.808L202.076 42.448H210.356L218.596 50.808V58.688H223.716V48.728L215.076 39.888L223.716 31.248V21.608H218.596V29.168L210.436 37.288H201.996L193.836 29.168V21.608H188.676V31.248L197.356 39.888L188.676 48.728V58.688Z" fill="white"/>
<path d="M242.994 61.768V29.848H233.034V18.568H242.994V7.608H254.314V18.568H264.234V29.848H254.314V50.448H263.954V61.768H242.994ZM246.114 58.688H260.914V53.568H251.234V26.688H261.234V21.568H251.234V10.648H246.114V21.568H236.074V26.688H246.114V58.688Z" fill="white"/>
<path d="M204.685 131.768V97.263H214.4V131.768H204.685ZM204.618 91.568V83.997H214.467V91.568H204.618Z" fill="white"/>
<path d="M242.398 131.768C238.512 131.768 235.653 130.808 233.822 128.887C231.991 126.922 231.075 124.353 231.075 121.182V104.968H221.092V97.263H231.075V86.677H240.79V97.263H255.128V104.968H240.79V119.976C240.79 122.701 242.13 124.063 244.81 124.063H257.004V131.768H242.398Z" fill="white"/>
<path d="M264.679 131.768V97.263H294.762C298.692 97.263 301.551 98.2457 303.338 100.211C305.169 102.132 306.085 104.678 306.085 107.849V131.768H296.37V108.988C296.37 106.308 295.03 104.968 292.35 104.968H274.394V131.768H264.679Z" fill="white"/>
<path d="M333.465 132.103C327.479 132.103 322.812 130.629 319.462 127.681C316.112 124.688 314.437 120.311 314.437 114.549C314.437 108.742 316.112 104.365 319.462 101.417C322.812 98.4243 327.479 96.928 333.465 96.928H350.215C354.145 96.928 357.138 97.866 359.193 99.742C361.292 101.573 362.342 104.209 362.342 107.648C362.342 114.661 358.299 118.167 350.215 118.167H324.889C325.827 122.321 328.685 124.398 333.465 124.398H360.6V132.103H333.465ZM333.465 104.633C328.864 104.633 326.028 106.576 324.956 110.462H349.746C350.639 110.462 351.331 110.194 351.823 109.658C352.359 109.122 352.627 108.385 352.627 107.447C352.627 105.571 351.666 104.633 349.746 104.633H333.465Z" fill="white"/>
<path d="M369.923 132.103V124.398H402.753C404.629 124.398 405.567 123.348 405.567 121.249C405.567 119.194 404.629 118.167 402.753 118.167H381.514C377.539 118.167 374.524 117.274 372.469 115.487C370.415 113.656 369.387 111.043 369.387 107.648C369.387 104.209 370.415 101.573 372.469 99.742C374.569 97.866 377.584 96.928 381.514 96.928H412.066V104.633H381.983C380.063 104.633 379.102 105.571 379.102 107.447C379.102 108.385 379.37 109.122 379.906 109.658C380.442 110.194 381.135 110.462 381.983 110.462H404.495C407.979 110.462 410.637 111.378 412.468 113.209C414.344 114.996 415.282 117.609 415.282 121.048C415.282 124.532 414.344 127.257 412.468 129.222C410.592 131.143 407.935 132.103 404.495 132.103H369.923Z" fill="white"/>
<path d="M422.526 132.103V124.398H455.356C457.232 124.398 458.17 123.348 458.17 121.249C458.17 119.194 457.232 118.167 455.356 118.167H434.117C430.142 118.167 427.127 117.274 425.072 115.487C423.017 113.656 421.99 111.043 421.99 107.648C421.99 104.209 423.017 101.573 425.072 99.742C427.171 97.866 430.186 96.928 434.117 96.928H464.669V104.633H434.586C432.665 104.633 431.705 105.571 431.705 107.447C431.705 108.385 431.973 109.122 432.509 109.658C433.045 110.194 433.737 110.462 434.586 110.462H457.098C460.582 110.462 463.24 111.378 465.071 113.209C466.947 114.996 467.885 117.609 467.885 121.048C467.885 124.532 466.947 127.257 465.071 129.222C463.195 131.143 460.537 132.103 457.098 132.103H422.526Z" fill="white"/>
<path d="M0 96.768L17.052 0H105.756L125.664 24.192L112.896 96.768H80.64L93.408 24.192L86.772 16.128H46.452L32.256 96.768H0Z" fill="#5CA9FB"/>
<path d="M69 164.768L81.768 92.192L110.244 68H198.948L193.236 100.256H160.98L163.836 84.128H123.516L114.024 92.192L109.824 116.384H190.464L187.608 132.512H106.968L101.256 164.768H69Z" fill="#6372FF"/>
</svg>
